<svg width="218" height="46" viewBox="0 0 218 46" fill="none" xmlns="http://www.w3.org/2000/svg">
<g clip-path="url(#clip0_458_2495)">
<path d="M63.9124 9.33245C66.7603 9.33245 69.1263 10.0478 71.0103 11.4786C72.8943 12.9093 74.1649 14.8495 74.8221 17.2992H70.846C70.2983 15.9118 69.422 14.817 68.2171 14.0149C67.0342 13.1911 65.5773 12.7793 63.8467 12.7793C62.4666 12.7793 61.2289 13.1153 60.1335 13.7873C59.0601 14.4593 58.2057 15.424 57.5704 16.6813C56.957 17.917 56.6503 19.3694 56.6503 21.0387C56.6503 22.6862 56.957 24.1387 57.5704 25.396C58.2057 26.6316 59.0601 27.5855 60.1335 28.2575C61.2289 28.9295 62.4666 29.2655 63.8467 29.2655C65.5773 29.2655 67.0342 28.8644 68.2171 28.0624C69.422 27.2386 70.2983 26.1439 70.846 24.7781H74.8221C74.1649 27.2278 72.8943 29.168 71.0103 30.5987C69.1263 32.0078 66.7603 32.7123 63.9124 32.7123C61.7218 32.7123 59.783 32.2246 58.0962 31.2491C56.4093 30.2519 55.1059 28.8753 54.1858 27.1194C53.2657 25.3418 52.8057 23.3149 52.8057 21.0387C52.8057 18.7624 53.2657 16.7464 54.1858 14.9904C55.1059 13.2129 56.4093 11.8254 58.0962 10.8282C59.783 9.83107 61.7218 9.33245 63.9124 9.33245ZM86.8401 14.3726C88.5929 14.3726 90.1702 14.7412 91.572 15.4782C92.9746 16.2152 94.0694 17.2775 94.858 18.6649C95.6467 20.0523 96.041 21.6781 96.041 23.5425C96.041 25.4285 95.6467 27.0652 94.858 28.4526C94.0694 29.84 92.9746 30.9022 91.572 31.6393C90.1702 32.3763 88.5929 32.7449 86.8401 32.7449C85.0881 32.7449 83.5108 32.3763 82.1082 31.6393C80.7281 30.9022 79.6331 29.84 78.8225 28.4526C78.0339 27.0435 77.6396 25.4068 77.6396 23.5425C77.6396 21.6781 78.0339 20.0523 78.8225 18.6649C79.6331 17.2775 80.7281 16.2152 82.1082 15.4782C83.5108 14.7412 85.0881 14.3726 86.8401 14.3726ZM86.8401 17.5918C85.8767 17.5918 84.9895 17.8086 84.1784 18.2422C83.3681 18.6758 82.7109 19.3478 82.2068 20.2582C81.7251 21.1471 81.4839 22.2418 81.4839 23.5425C81.4839 24.8648 81.7251 25.9704 82.2068 26.8592C82.7109 27.7481 83.3681 28.4092 84.1784 28.8428C84.9895 29.2764 85.8767 29.4931 86.8401 29.4931C87.8043 29.4931 88.6915 29.2764 89.5018 28.8428C90.3129 28.4092 90.9589 27.7481 91.4406 26.8592C91.9447 25.9704 92.1963 24.8648 92.1963 23.5425C92.1963 22.2418 91.9447 21.1471 91.4406 20.2582C90.9589 19.3478 90.3129 18.6758 89.5018 18.2422C88.6915 17.8086 87.8043 17.5918 86.8401 17.5918ZM122.284 14.3076C124.431 14.3076 126.139 14.9796 127.41 16.3237C128.703 17.6677 129.349 19.5862 129.349 22.0792V32.5172H125.602V22.4694C125.602 20.9086 125.208 19.7054 124.419 18.86C123.631 17.9929 122.546 17.5593 121.166 17.5593C119.699 17.5593 118.526 18.0254 117.65 18.9576C116.796 19.868 116.369 21.2121 116.369 22.9897V32.5172H112.623V22.4694C112.623 20.9086 112.228 19.7054 111.44 18.86C110.651 17.9929 109.567 17.5593 108.186 17.5593C106.719 17.5593 105.546 18.0254 104.67 18.9576C103.816 19.868 103.389 21.2121 103.389 22.9897V32.5172H99.6428V14.6002H103.389V18.3397C103.849 17.039 104.616 16.0419 105.689 15.3481C106.762 14.6544 108.022 14.3076 109.468 14.3076C110.98 14.3076 112.283 14.6761 113.378 15.4132C114.496 16.1502 115.306 17.2125 115.81 18.5999C116.336 17.2558 117.179 16.2045 118.34 15.4457C119.502 14.6869 120.816 14.3076 122.284 14.3076ZM144.107 14.3726C145.684 14.3726 147.086 14.7412 148.313 15.4782C149.562 16.2152 150.536 17.2775 151.237 18.6649C151.938 20.0523 152.289 21.6781 152.289 23.5425C152.289 25.4285 151.938 27.0652 151.237 28.4526C150.536 29.84 149.562 30.9022 148.313 31.6393C147.086 32.3763 145.684 32.7449 144.107 32.7449C142.464 32.7449 141.061 32.3438 139.901 31.5417C138.739 30.7397 137.929 29.6774 137.469 28.355V41.0368H133.723V14.6002H137.469V18.7624C137.929 17.4401 138.739 16.3778 139.901 15.5758C141.061 14.7737 142.464 14.3726 144.107 14.3726ZM142.957 17.6243C141.905 17.6243 140.963 17.8736 140.131 18.3722C139.298 18.8491 138.641 19.5429 138.159 20.4533C137.677 21.3422 137.436 22.3719 137.436 23.5425C137.436 24.7348 137.677 25.7753 138.159 26.6641C138.641 27.553 139.298 28.2466 140.131 28.7452C140.963 29.2221 141.905 29.4606 142.957 29.4606C144.621 29.4606 145.957 28.9403 146.966 27.8998C147.973 26.8376 148.477 25.3851 148.477 23.5425C148.477 21.7215 147.973 20.2799 146.966 19.2177C145.957 18.1555 144.621 17.6243 142.957 17.6243ZM163.159 14.3726C164.802 14.3726 166.204 14.7737 167.365 15.5758C168.526 16.3778 169.348 17.4401 169.83 18.7624V14.6002H173.576V32.5172H169.83V28.355C169.348 29.6774 168.526 30.7397 167.365 31.5417C166.204 32.3438 164.802 32.7449 163.159 32.7449C161.582 32.7449 160.169 32.3763 158.92 31.6393C157.693 30.9022 156.729 29.84 156.029 28.4526C155.327 27.0652 154.977 25.4285 154.977 23.5425C154.977 21.6781 155.327 20.0523 156.029 18.6649C156.729 17.2775 157.693 16.2152 158.92 15.4782C160.169 14.7412 161.582 14.3726 163.159 14.3726ZM164.309 17.6243C162.644 17.6243 161.308 18.1555 160.301 19.2177C159.315 20.2582 158.822 21.6999 158.822 23.5425C158.822 25.3851 159.315 26.8376 160.301 27.8998C161.308 28.9403 162.644 29.4606 164.309 29.4606C165.361 29.4606 166.303 29.2221 167.135 28.7452C167.967 28.2466 168.625 27.553 169.107 26.6641C169.589 25.7753 169.83 24.7348 169.83 23.5425C169.83 22.3719 169.589 21.3422 169.107 20.4533C168.625 19.5429 167.967 18.8491 167.135 18.3722C166.303 17.8736 165.361 17.6243 164.309 17.6243ZM188.193 14.3076C190.296 14.3076 191.982 14.9796 193.253 16.3237C194.523 17.6677 195.159 19.5862 195.159 22.0792V32.5172H191.413V22.4694C191.413 20.8652 190.996 19.6295 190.164 18.7624C189.331 17.8736 188.193 17.4292 186.747 17.4292C185.257 17.4292 184.063 17.9061 183.165 18.86C182.266 19.7921 181.818 21.1687 181.818 22.9897V32.5172H178.072V14.6002H181.818V18.5348C182.299 17.1908 183.11 16.1502 184.249 15.4132C185.388 14.6761 186.703 14.3076 188.193 14.3076ZM201.676 14.6002L207.098 27.7697L212.125 14.6002H216.298L205.356 41.0368H201.183L205.093 32.0945L197.47 14.6002H201.676Z" fill="black"/>
<path d="M43.7458 33.8329C41.5806 37.8458 38.2616 41.1331 34.2084 43.2793C30.1552 45.4255 25.5499 46.3341 20.9749 45.8902C16.3999 45.4464 12.0606 43.6701 8.50577 40.7858C4.95097 37.9016 2.34029 34.039 1.00387 29.6865C-0.332543 25.334 -0.334666 20.6871 0.997774 16.3334C2.33021 11.9797 4.93736 8.11479 8.48958 5.22736C12.0417 2.33993 16.3794 0.559691 20.954 0.111768C25.5286 -0.336156 30.1347 0.56835 34.1899 2.71091L31.4375 7.81202C28.402 6.20814 24.9539 5.53105 21.5294 5.86635C18.105 6.20166 14.8579 7.5343 12.1988 9.69577C9.53966 11.8572 7.58804 14.7505 6.5906 18.0096C5.59317 21.2686 5.59476 24.7472 6.59517 28.0054C7.59558 31.2636 9.54992 34.155 12.211 36.3141C14.872 38.4732 18.1203 39.8029 21.5451 40.1352C24.9698 40.4674 28.4173 39.7872 31.4514 38.1806C34.4855 36.574 36.9701 34.1132 38.5909 31.1093L43.7458 33.8329Z" fill="#153D78"/>
<path d="M24.4448 34.8966C30.8631 34.8966 36.0661 29.7478 36.0661 23.3966C36.0661 17.0453 30.8631 11.8966 24.4448 11.8966C18.0265 11.8966 12.8235 17.0453 12.8235 23.3966C12.8235 29.7478 18.0265 34.8966 24.4448 34.8966Z" fill="#5AC4FF"/>
</g>
<defs>
<clipPath id="clip0_458_2495">
<rect width="218" height="46" fill="white"/>
</clipPath>
</defs>
</svg>
