<svg width="382" height="219" viewBox="0 0 382 219" preserveAspectRatio="none" fill="none" xmlns="http://www.w3.org/2000/svg">
<g clip-path="url(#clip0_503_2299)">
<path opacity="0.2" d="M54 55.9999C35.6 54.3999 11.3333 78.3332 1.5 90.4999L0 151.5H382V95.4999V73.9999C356.5 53.4999 354.5 44.4999 330 41.4999C297.061 37.4665 289.5 75.4999 243 77.9999C196.5 80.4999 218.5 118.5 181 115.5C143.5 112.5 147 66.9999 109.5 83.9999C72 101 77 57.9999 54 55.9999Z" fill="url(#paint0_linear_503_2299)"/>
<path d="M1.5 90.5001C11.3333 78.3334 35.6 54.4001 54 56.0001C77 58.0001 71 101 108.5 84.0001C146 67.0001 143.5 112.5 181 115.5C218.5 118.5 194.5 82.5001 241 80.0001C287.5 77.5001 297.061 37.4667 330 41.5001C354.5 44.5001 356.5 53.5001 382 74.0001" stroke="#3FC7F2" stroke-width="3"/>
</g>
<defs>
<linearGradient id="paint0_linear_503_2299" x1="191" y1="35.3808" x2="191" y2="151.5" gradientUnits="userSpaceOnUse">
<stop stop-color="#3FC7F2"/>
<stop offset="1" stop-color="#3FC7F2" stop-opacity="0"/>
</linearGradient>
<clipPath id="clip0_503_2299">
<rect width="382" height="219" rx="3" fill="white"/>
</clipPath>
</defs>
</svg>
