<svg width="20" height="20" viewBox="0 0 20 20" fill="none" xmlns="http://www.w3.org/2000/svg">
<path d="M15.7807 10.8469L16.8749 5.43018C16.954 5.03909 16.6897 4.66667 16.3332 4.66667H7.24104L7.02886 3.49974C6.97599 3.20888 6.74849 3 6.48458 3H4.11122C3.80439 3 3.55566 3.27982 3.55566 3.625V4.04167C3.55566 4.38685 3.80439 4.66667 4.11122 4.66667H5.72888L7.35499 13.6103C6.96597 13.862 6.70381 14.3339 6.70381 14.875C6.70381 15.6804 7.28418 16.3333 8.00011 16.3333C8.71604 16.3333 9.29641 15.6804 9.29641 14.875C9.29641 14.4668 9.14717 14.098 8.90696 13.8333H13.7599C13.5197 14.098 13.3705 14.4668 13.3705 14.875C13.3705 15.6804 13.9509 16.3333 14.6668 16.3333C15.3827 16.3333 15.9631 15.6804 15.9631 14.875C15.9631 14.2976 15.6647 13.7986 15.2321 13.5624L15.3598 12.9302C15.4388 12.5391 15.1746 12.1667 14.8181 12.1667H8.60467L8.45317 11.3333H15.2389C15.4983 11.3333 15.7232 11.1314 15.7807 10.8469Z" fill="#9C9C9C"/>
</svg>
