<svg width="10" height="6" viewBox="0 0 10 6" fill="none" xmlns="http://www.w3.org/2000/svg">
<path d="M4.99216 5.99797C4.82555 5.99836 4.6641 5.92865 4.53581 5.80093L0.257587 1.51743C0.111972 1.37202 0.0204009 1.16306 0.00301722 0.936524C-0.0143664 0.70999 0.0438616 0.484437 0.164892 0.309485C0.285922 0.134532 0.45984 0.0245113 0.648386 0.00362514C0.836931 -0.017261 1.02466 0.0526984 1.17027 0.198113L4.99216 4.03613L8.81404 0.335186C8.88697 0.264023 8.9709 0.210881 9.06098 0.178813C9.15107 0.146745 9.24554 0.136385 9.33896 0.148326C9.43239 0.160268 9.52294 0.194276 9.60539 0.248397C9.68784 0.302518 9.76058 0.375685 9.81942 0.463691C9.88472 0.551778 9.93418 0.655119 9.96469 0.767238C9.9952 0.879357 10.0061 0.99784 9.99674 1.11526C9.98737 1.23268 9.95792 1.34652 9.91023 1.44963C9.86254 1.55273 9.79764 1.6429 9.7196 1.71447L5.44137 5.85233C5.3094 5.95986 5.15124 6.01114 4.99216 5.99797V5.99797Z" fill="#9C9C9C"/>
</svg>
