<svg width="20" height="4" viewBox="0 0 20 4" fill="none" xmlns="http://www.w3.org/2000/svg">
<g clip-path="url(#clip0_494_2404)">
<path d="M1.875 3.75C2.91053 3.75 3.75 2.91053 3.75 1.875C3.75 0.839466 2.91053 0 1.875 0C0.839466 0 0 0.839466 0 1.875C0 2.91053 0.839466 3.75 1.875 3.75Z" fill="#9C9C9C"/>
<path d="M9.625 3.75C10.6605 3.75 11.5 2.91053 11.5 1.875C11.5 0.839466 10.6605 0 9.625 0C8.58947 0 7.75 0.839466 7.75 1.875C7.75 2.91053 8.58947 3.75 9.625 3.75Z" fill="#9C9C9C"/>
<path d="M17.375 3.75C18.4105 3.75 19.25 2.91053 19.25 1.875C19.25 0.839466 18.4105 0 17.375 0C16.3395 0 15.5 0.839466 15.5 1.875C15.5 2.91053 16.3395 3.75 17.375 3.75Z" fill="#9C9C9C"/>
</g>
<defs>
<clipPath id="clip0_494_2404">
<rect width="19.25" height="3.75" fill="white"/>
</clipPath>
</defs>
</svg>
