<svg width="21" height="21" viewBox="0 0 21 21" fill="none" xmlns="http://www.w3.org/2000/svg">
<path d="M10.623 9.4037C10.6084 9.38503 10.5897 9.36992 10.5684 9.35954C10.5471 9.34915 10.5237 9.34375 10.4999 9.34375C10.4762 9.34375 10.4528 9.34915 10.4315 9.35954C10.4102 9.36992 10.3915 9.38503 10.3769 9.4037L8.1894 12.1713C8.17136 12.1943 8.16017 12.2219 8.15711 12.251C8.15404 12.2801 8.15922 12.3095 8.17206 12.3358C8.1849 12.3621 8.20487 12.3842 8.22969 12.3997C8.25452 12.4151 8.2832 12.4233 8.31245 12.4232H9.7558V17.1576C9.7558 17.2435 9.82612 17.3139 9.91205 17.3139H11.0839C11.1699 17.3139 11.2402 17.2435 11.2402 17.1576V12.4252H12.6874C12.8183 12.4252 12.8906 12.2748 12.8105 12.1732L10.623 9.4037Z" fill="#505050"/>
<path d="M16.3477 7.66211C15.4531 5.30273 13.1738 3.625 10.5039 3.625C7.83398 3.625 5.55469 5.30078 4.66016 7.66016C2.98633 8.09961 1.75 9.625 1.75 11.4375C1.75 13.5957 3.49805 15.3438 5.6543 15.3438H6.4375C6.52344 15.3438 6.59375 15.2734 6.59375 15.1875V14.0156C6.59375 13.9297 6.52344 13.8594 6.4375 13.8594H5.6543C4.99609 13.8594 4.37695 13.5977 3.91602 13.123C3.45703 12.6504 3.21289 12.0137 3.23438 11.3535C3.25195 10.8379 3.42773 10.3535 3.74609 9.94531C4.07227 9.5293 4.5293 9.22656 5.03711 9.0918L5.77734 8.89844L6.04883 8.18359C6.2168 7.73828 6.45117 7.32227 6.74609 6.94531C7.03725 6.57169 7.38214 6.24326 7.76953 5.9707C8.57227 5.40625 9.51758 5.10742 10.5039 5.10742C11.4902 5.10742 12.4355 5.40625 13.2383 5.9707C13.627 6.24414 13.9707 6.57227 14.2617 6.94531C14.5566 7.32227 14.791 7.74023 14.959 8.18359L15.2285 8.89648L15.9668 9.0918C17.0254 9.37695 17.7656 10.3398 17.7656 11.4375C17.7656 12.084 17.5137 12.6934 17.0566 13.1504C16.8325 13.3758 16.5659 13.5546 16.2722 13.6763C15.9785 13.798 15.6636 13.8602 15.3457 13.8594H14.5625C14.4766 13.8594 14.4062 13.9297 14.4062 14.0156V15.1875C14.4062 15.2734 14.4766 15.3438 14.5625 15.3438H15.3457C17.502 15.3438 19.25 13.5957 19.25 11.4375C19.25 9.62695 18.0176 8.10352 16.3477 7.66211Z" fill="#505050"/>
</svg>
