<svg width="45" height="42" viewBox="0 0 45 42" fill="none" xmlns="http://www.w3.org/2000/svg">
<rect width="45" height="42" rx="3" fill="#5AC4FF"/>
<path fill-rule="evenodd" clip-rule="evenodd" d="M22.5201 12.125C20.1675 12.125 18.0243 12.9021 16.756 13.537C16.6415 13.5943 16.5347 13.6505 16.4352 13.7047C16.2383 13.812 16.0706 13.912 15.9373 14L17.38 16.124L18.0592 16.3943C20.7133 17.7333 24.2727 17.7333 26.9274 16.3943L27.6982 15.9943L29.0623 14C28.7798 13.8157 28.486 13.6492 28.1826 13.5016C26.9206 12.8734 24.8284 12.125 22.5206 12.125H22.5201ZM19.1649 14.5292C18.654 14.4336 18.1494 14.3069 17.654 14.15C18.842 13.6224 20.6123 13.0625 22.5201 13.0625C23.8415 13.0625 25.0909 13.3313 26.1243 13.6719C24.9133 13.8422 23.6211 14.1312 22.3899 14.487C21.4211 14.7672 20.2889 14.737 19.1649 14.5292V14.5292ZM27.4774 17.1667L27.3493 17.2312C24.4295 18.7042 20.5566 18.7042 17.6368 17.2312L17.5154 17.1698C13.129 21.9828 9.78 30.8734 22.5201 30.8734C35.2602 30.8734 31.8295 21.8167 27.4774 17.1667ZM21.979 21.5C21.7027 21.5 21.4377 21.6097 21.2424 21.8051C21.047 22.0004 20.9373 22.2654 20.9373 22.5417C20.9373 22.8179 21.047 23.0829 21.2424 23.2782C21.4377 23.4736 21.7027 23.5833 21.979 23.5833V21.5ZM23.0206 20.4583V19.9375H21.979V20.4583C21.4264 20.4583 20.8965 20.6778 20.5058 21.0685C20.1151 21.4592 19.8956 21.9891 19.8956 22.5417C19.8956 23.0942 20.1151 23.6241 20.5058 24.0148C20.8965 24.4055 21.4264 24.625 21.979 24.625V26.7083C21.5258 26.7083 21.1399 26.4193 20.9961 26.0141C20.9748 25.9478 20.9404 25.8864 20.895 25.8337C20.8495 25.7809 20.7939 25.7378 20.7315 25.7069C20.6691 25.676 20.6012 25.6579 20.5317 25.6537C20.4621 25.6495 20.3925 25.6593 20.3268 25.6825C20.2612 25.7057 20.2008 25.7418 20.1494 25.7887C20.0979 25.8357 20.0564 25.8924 20.0273 25.9557C19.9981 26.019 19.982 26.0874 19.9798 26.157C19.9776 26.2266 19.9893 26.296 20.0144 26.3609C20.158 26.7672 20.4241 27.1189 20.7759 27.3676C21.1278 27.6164 21.5481 27.75 21.979 27.75V28.2708H23.0206V27.75C23.5732 27.75 24.1031 27.5305 24.4938 27.1398C24.8845 26.7491 25.104 26.2192 25.104 25.6667C25.104 25.1141 24.8845 24.5842 24.4938 24.1935C24.1031 23.8028 23.5732 23.5833 23.0206 23.5833V21.5C23.4738 21.5 23.8597 21.7891 24.0034 22.1943C24.0248 22.2606 24.0592 22.3219 24.1046 22.3747C24.1501 22.4274 24.2056 22.4706 24.268 22.5015C24.3304 22.5324 24.3984 22.5505 24.4679 22.5547C24.5374 22.5588 24.6071 22.549 24.6728 22.5258C24.7384 22.5026 24.7988 22.4665 24.8502 22.4196C24.9017 22.3727 24.9432 22.3159 24.9723 22.2526C25.0015 22.1894 25.0176 22.1209 25.0198 22.0513C25.022 21.9817 25.0103 21.9124 24.9852 21.8474C24.8415 21.4412 24.5755 21.0894 24.2236 20.8407C23.8718 20.5919 23.4515 20.4583 23.0206 20.4583ZM23.0206 24.625V26.7083C23.2969 26.7083 23.5618 26.5986 23.7572 26.4032C23.9525 26.2079 24.0623 25.9429 24.0623 25.6667C24.0623 25.3904 23.9525 25.1254 23.7572 24.9301C23.5618 24.7347 23.2969 24.625 23.0206 24.625Z" fill="white"/>
</svg>
