<svg width="44" height="46" viewBox="0 0 44 46" fill="none" xmlns="http://www.w3.org/2000/svg">
<path d="M43.7458 33.8329C41.5806 37.8458 38.2616 41.1331 34.2084 43.2793C30.1552 45.4255 25.5499 46.3341 20.9749 45.8902C16.3999 45.4464 12.0606 43.6701 8.50577 40.7858C4.95097 37.9016 2.34029 34.039 1.00387 29.6865C-0.332543 25.334 -0.334666 20.6871 0.997774 16.3334C2.33021 11.9797 4.93736 8.11479 8.48958 5.22736C12.0417 2.33993 16.3794 0.559691 20.954 0.111768C25.5286 -0.336156 30.1347 0.56835 34.1899 2.71091L31.4375 7.81202C28.402 6.20814 24.9539 5.53105 21.5294 5.86635C18.105 6.20166 14.8579 7.5343 12.1988 9.69577C9.53966 11.8572 7.58804 14.7505 6.5906 18.0096C5.59317 21.2686 5.59476 24.7472 6.59517 28.0054C7.59558 31.2636 9.54992 34.155 12.211 36.3141C14.872 38.4732 18.1203 39.8029 21.5451 40.1352C24.9698 40.4674 28.4173 39.7872 31.4514 38.1806C34.4855 36.574 36.9701 34.1132 38.5909 31.1093L43.7458 33.8329Z" fill="#153D78"/>
<path d="M24.4448 34.8966C30.8631 34.8966 36.0661 29.7478 36.0661 23.3966C36.0661 17.0453 30.8631 11.8966 24.4448 11.8966C18.0265 11.8966 12.8235 17.0453 12.8235 23.3966C12.8235 29.7478 18.0265 34.8966 24.4448 34.8966Z" fill="#5AC4FF"/>
</svg>
