<svg width="382" height="219" viewBox="0 0 382 219" preserveAspectRatio="none" fill="none" xmlns="http://www.w3.org/2000/svg">
<g clip-path="url(#clip0_499_2289)">
<path opacity="0.2" d="M54 56C35.6 54.4 11.3333 78.3333 1.5 90.5L0 151.5H382V95.5V74C356.5 53.5 354.5 44.5 330 41.5C297.061 37.4666 297.5 78.5 251 81C204.5 83.5 218.5 38.5 181 35.5C143.5 32.5 146 87 108.5 104C71 121 77 58 54 56Z" fill="url(#paint0_linear_499_2289)"/>
<path d="M1.5 90.5C11.3333 78.3333 35.6 54.4 54 56C77 58 71 121 108.5 104C146 87 143.5 32.5 181 35.5C218.5 38.5 204.5 83.5 251 81C297.5 78.5 297.061 37.4666 330 41.5C354.5 44.5 356.5 53.5 382 74" stroke="#3FC7F2" stroke-width="3"/>
</g>
<defs>
<linearGradient id="paint0_linear_499_2289" x1="191" y1="35.3809" x2="191" y2="151.5" gradientUnits="userSpaceOnUse">
<stop stop-color="#3FC7F2"/>
<stop offset="1" stop-color="#3FC7F2" stop-opacity="0"/>
</linearGradient>
<clipPath id="clip0_499_2289">
<rect width="382" height="219" fill="white"/>
</clipPath>
</defs>
</svg>
