<svg width="20" height="21" viewBox="0 0 20 21" fill="none" xmlns="http://www.w3.org/2000/svg">
<path d="M3.33333 11.3333H8.33333C8.55435 11.3333 8.76631 11.2455 8.92259 11.0893C9.07887 10.933 9.16667 10.721 9.16667 10.5V3.83333C9.16667 3.61232 9.07887 3.40036 8.92259 3.24408C8.76631 3.0878 8.55435 3 8.33333 3H3.33333C3.11232 3 2.90036 3.0878 2.74408 3.24408C2.5878 3.40036 2.5 3.61232 2.5 3.83333V10.5C2.5 10.721 2.5878 10.933 2.74408 11.0893C2.90036 11.2455 3.11232 11.3333 3.33333 11.3333ZM2.5 17.1667C2.5 17.3877 2.5878 17.5996 2.74408 17.7559C2.90036 17.9122 3.11232 18 3.33333 18H8.33333C8.55435 18 8.76631 17.9122 8.92259 17.7559C9.07887 17.5996 9.16667 17.3877 9.16667 17.1667V13.8333C9.16667 13.6123 9.07887 13.4004 8.92259 13.2441C8.76631 13.0878 8.55435 13 8.33333 13H3.33333C3.11232 13 2.90036 13.0878 2.74408 13.2441C2.5878 13.4004 2.5 13.6123 2.5 13.8333V17.1667ZM10.8333 17.1667C10.8333 17.3877 10.9211 17.5996 11.0774 17.7559C11.2337 17.9122 11.4457 18 11.6667 18H16.6667C16.8877 18 17.0996 17.9122 17.2559 17.7559C17.4122 17.5996 17.5 17.3877 17.5 17.1667V11.3333C17.5 11.1123 17.4122 10.9004 17.2559 10.7441C17.0996 10.5878 16.8877 10.5 16.6667 10.5H11.6667C11.4457 10.5 11.2337 10.5878 11.0774 10.7441C10.9211 10.9004 10.8333 11.1123 10.8333 11.3333V17.1667ZM11.6667 8.83333H16.6667C16.8877 8.83333 17.0996 8.74554 17.2559 8.58926C17.4122 8.43298 17.5 8.22101 17.5 8V3.83333C17.5 3.61232 17.4122 3.40036 17.2559 3.24408C17.0996 3.0878 16.8877 3 16.6667 3H11.6667C11.4457 3 11.2337 3.0878 11.0774 3.24408C10.9211 3.40036 10.8333 3.61232 10.8333 3.83333V8C10.8333 8.22101 10.9211 8.43298 11.0774 8.58926C11.2337 8.74554 11.4457 8.83333 11.6667 8.83333Z" fill="#9C9C9C"/>
</svg>
