<svg width="25" height="25" viewBox="0 0 25 25" fill="none" xmlns="http://www.w3.org/2000/svg">
<path d="M13.3335 7.8125C14.1964 7.8125 14.896 7.11295 14.896 6.25C14.896 5.38706 14.1964 4.6875 13.3335 4.6875C12.4706 4.6875 11.771 5.38706 11.771 6.25C11.771 7.11295 12.4706 7.8125 13.3335 7.8125Z" fill="white"/>
<path d="M13.3335 14.0625C14.1964 14.0625 14.896 13.3629 14.896 12.5C14.896 11.6371 14.1964 10.9375 13.3335 10.9375C12.4706 10.9375 11.771 11.6371 11.771 12.5C11.771 13.3629 12.4706 14.0625 13.3335 14.0625Z" fill="white"/>
<path d="M13.3335 20.3125C14.1964 20.3125 14.896 19.6129 14.896 18.75C14.896 17.8871 14.1964 17.1875 13.3335 17.1875C12.4706 17.1875 11.771 17.8871 11.771 18.75C11.771 19.6129 12.4706 20.3125 13.3335 20.3125Z" fill="white"/>
</svg>
