<svg width="20" height="21" viewBox="0 0 20 21" fill="none" xmlns="http://www.w3.org/2000/svg">
<path d="M9.96067 2.16663C5.38734 2.16663 1.6665 5.90496 1.6665 10.5C1.6665 15.095 5.40484 18.8333 9.99984 18.8333C14.5948 18.8333 18.3332 15.095 18.3332 10.5C18.3332 5.90496 14.5773 2.16663 9.96067 2.16663ZM9.99984 17.1666C6.324 17.1666 3.33317 14.1758 3.33317 10.5C3.33317 6.82413 6.30567 3.83329 9.96067 3.83329C13.659 3.83329 16.6665 6.82413 16.6665 10.5C16.6665 14.1758 13.6757 17.1666 9.99984 17.1666Z" fill="white"/>
<path d="M9.1665 6.33337H10.8332V12.1667H9.1665V6.33337ZM9.1665 13H10.8332V14.6667H9.1665V13Z" fill="white"/>
</svg>
