<svg width="20" height="21" viewBox="0 0 20 21" fill="none" xmlns="http://www.w3.org/2000/svg">
<path d="M9.96067 18.8334C5.38734 18.8334 1.6665 15.095 1.6665 10.5C1.6665 5.90504 5.40484 2.16671 9.99984 2.16671C14.5948 2.16671 18.3332 5.90504 18.3332 10.5C18.3332 15.095 14.5773 18.8334 9.96067 18.8334ZM9.99984 3.83337C6.324 3.83337 3.33317 6.82421 3.33317 10.5C3.33317 14.1759 6.30567 17.1667 9.96067 17.1667C13.659 17.1667 16.6665 14.1759 16.6665 10.5C16.6665 6.82421 13.6757 3.83337 9.99984 3.83337Z" fill="white"/>
<path d="M9.1665 14.6665H10.8332V8.83317H9.1665V14.6665ZM9.1665 7.99984H10.8332V6.33317H9.1665V7.99984Z" fill="white"/>
</svg>
