<svg width="20" height="20" viewBox="0 0 20 20" fill="none" xmlns="http://www.w3.org/2000/svg">
<path d="M15.6471 9.40334C15.9304 9.40334 16.2137 9.42834 16.4887 9.46168V1.83668C16.4887 1.09501 15.5887 0.72001 15.0637 1.24501L1.24706 15.0617C0.722064 15.5867 1.08873 16.4867 1.8304 16.4867H9.4554C9.42206 16.2117 9.39706 15.9367 9.39706 15.6533C9.39706 12.2033 12.1971 9.40334 15.6471 9.40334V9.40334ZM18.7387 16.0617C18.7554 15.9283 18.7721 15.795 18.7721 15.6533C18.7721 15.5117 18.7637 15.3783 18.7387 15.245L19.6221 14.5533C19.6595 14.5212 19.6849 14.4773 19.694 14.4288C19.7031 14.3803 19.6953 14.3302 19.6721 14.2867L18.8387 12.845C18.7887 12.7533 18.6804 12.72 18.5804 12.7533L17.5471 13.17C17.3304 13.0033 17.0971 12.8617 16.8387 12.7617L16.6804 11.6617C16.6721 11.5617 16.5804 11.4867 16.4804 11.4867H14.8137C14.7137 11.4867 14.6221 11.5617 14.6054 11.6617L14.4471 12.7617C14.1971 12.87 13.9554 13.0033 13.7387 13.17L12.7054 12.7533C12.6137 12.72 12.5054 12.7533 12.4471 12.845L11.6137 14.2867C11.5637 14.3783 11.5804 14.4867 11.6637 14.5533L12.5471 15.245C12.5128 15.5162 12.5128 15.7905 12.5471 16.0617L11.6637 16.7533C11.6263 16.7855 11.6009 16.8294 11.5918 16.8779C11.5827 16.9264 11.5905 16.9765 11.6137 17.02L12.4471 18.4617C12.4971 18.5533 12.6054 18.5867 12.7054 18.5533L13.7387 18.1367C13.9554 18.3033 14.1887 18.445 14.4471 18.545L14.6054 19.645C14.6221 19.745 14.7054 19.82 14.8137 19.82H16.4804C16.5804 19.82 16.6721 19.745 16.6887 19.645L16.8471 18.545C17.0971 18.4367 17.3387 18.3033 17.5471 18.1367L18.5887 18.5533C18.6804 18.5867 18.7887 18.5533 18.8471 18.4617L19.6804 17.02C19.7037 16.9765 19.7114 16.9264 19.7023 16.8779C19.6932 16.8294 19.6678 16.7855 19.6304 16.7533L18.7387 16.0617V16.0617ZM15.6471 16.9033C14.9554 16.9033 14.3971 16.345 14.3971 15.6533C14.3971 14.9617 14.9554 14.4033 15.6471 14.4033C16.3387 14.4033 16.8971 14.9617 16.8971 15.6533C16.8971 16.345 16.3387 16.9033 15.6471 16.9033Z" fill="white"/>
</svg>
