<svg width="25" height="25" viewBox="0 0 25 25" fill="none" xmlns="http://www.w3.org/2000/svg">
<path d="M10.4166 19.1667C12.2655 19.1663 14.0612 18.5473 15.5176 17.4083L20.0968 21.9875L21.5697 20.5146L16.9905 15.9354C18.1301 14.4788 18.7495 12.6827 18.7499 10.8333C18.7499 6.23853 15.0114 2.49999 10.4166 2.49999C5.82179 2.49999 2.08325 6.23853 2.08325 10.8333C2.08325 15.4281 5.82179 19.1667 10.4166 19.1667ZM10.4166 4.58333C13.8635 4.58333 16.6666 7.38645 16.6666 10.8333C16.6666 14.2802 13.8635 17.0833 10.4166 17.0833C6.96971 17.0833 4.16659 14.2802 4.16659 10.8333C4.16659 7.38645 6.96971 4.58333 10.4166 4.58333Z" fill="white"/>
</svg>
