<svg width="20" height="20" viewBox="0 0 20 20" fill="none" xmlns="http://www.w3.org/2000/svg">
<path d="M18 4V16.0001H3.23988C3.00137 16.0001 2.92787 15.8433 3.07787 15.6513L6.42965 11.3403C6.46325 11.2953 6.50609 11.2579 6.5553 11.2308C6.60451 11.2036 6.65896 11.1873 6.71499 11.1829C6.77102 11.1785 6.82734 11.1861 6.88019 11.2052C6.93303 11.2244 6.98118 11.2546 7.02141 11.2938L8.08567 12.2943C8.12404 12.3333 8.1709 12.3629 8.22259 12.3807C8.27429 12.3986 8.32941 12.4042 8.38365 12.3973C8.43789 12.3903 8.48979 12.3709 8.53529 12.3405C8.58078 12.3102 8.61865 12.2697 8.64592 12.2223L10.9312 8.66729C10.9582 8.62016 10.9959 8.57998 11.0412 8.54996C11.0865 8.51994 11.1382 8.50089 11.1922 8.49434C11.2461 8.48778 11.3008 8.4939 11.352 8.51221C11.4032 8.53052 11.4494 8.5605 11.4869 8.59979L13.1152 10.1718C13.2892 10.3406 13.5345 10.3068 13.6582 10.0968L17.508 4.258C17.6325 4.0465 17.8125 4 18 4Z" fill="#9C9C9C"/>
</svg>
