<svg width="20" height="20" viewBox="0 0 20 20" fill="none" xmlns="http://www.w3.org/2000/svg">
<path d="M10.0027 8.37809C9.50874 8.37809 9.04618 8.56972 8.69595 8.91995C8.34738 9.27017 8.1541 9.73273 8.1541 10.2267C8.1541 10.7206 8.34738 11.1832 8.69595 11.5334C9.04618 11.882 9.50874 12.0753 10.0027 12.0753C10.4966 12.0753 10.9592 11.882 11.3094 11.5334C11.658 11.1832 11.8513 10.7206 11.8513 10.2267C11.8513 9.73273 11.658 9.27017 11.3094 8.91995C11.1384 8.74757 10.9348 8.61091 10.7104 8.51789C10.4861 8.42487 10.2455 8.37735 10.0027 8.37809V8.37809ZM16.8139 12.2686L15.7335 11.3451C15.7847 11.0312 15.8111 10.7107 15.8111 10.3919C15.8111 10.073 15.7847 9.7509 15.7335 9.43868L16.8139 8.51521C16.8955 8.44534 16.9539 8.35228 16.9814 8.24841C17.0088 8.14453 17.004 8.03477 16.9675 7.9337L16.9527 7.89075C16.6553 7.05928 16.2098 6.28857 15.6377 5.61594L15.6079 5.58125C15.5385 5.49956 15.4459 5.44084 15.3423 5.41283C15.2388 5.38481 15.1293 5.38882 15.0281 5.42431L13.6867 5.90174C13.191 5.49535 12.6393 5.17486 12.0413 4.95184L11.7819 3.54929C11.7623 3.44363 11.7111 3.34643 11.6349 3.27059C11.5588 3.19476 11.4614 3.14388 11.3557 3.12473L11.3111 3.11647C10.452 2.96118 9.54673 2.96118 8.68769 3.11647L8.64309 3.12473C8.53736 3.14388 8.43995 3.19476 8.36382 3.27059C8.2877 3.34643 8.23644 3.44363 8.21687 3.54929L7.95586 4.95845C7.3635 5.18325 6.81167 5.50296 6.32203 5.90504L4.97069 5.42431C4.86953 5.38853 4.75988 5.38438 4.65631 5.41242C4.55273 5.44045 4.46014 5.49934 4.39084 5.58125L4.3611 5.61594C3.78999 6.28928 3.34458 7.05981 3.04611 7.89075L3.03124 7.9337C2.9569 8.1402 3.01803 8.37148 3.18488 8.51521L4.2785 9.44859C4.22729 9.75916 4.20251 10.0763 4.20251 10.3902C4.20251 10.7074 4.22729 11.0246 4.2785 11.3319L3.18818 12.2653C3.10657 12.3351 3.04815 12.4282 3.02071 12.5321C2.99326 12.6359 2.99809 12.7457 3.03455 12.8468L3.04941 12.8897C3.34843 13.7207 3.78951 14.4888 4.36441 15.1645L4.39414 15.1992C4.46362 15.2809 4.55621 15.3396 4.65972 15.3676C4.76323 15.3956 4.8728 15.3916 4.97399 15.3561L6.32533 14.8754C6.81763 15.2802 7.36609 15.6006 7.95916 15.822L8.22018 17.2312C8.23975 17.3368 8.291 17.434 8.36713 17.5099C8.44326 17.5857 8.54066 17.6366 8.64639 17.6557L8.691 17.664C9.55849 17.8201 10.4469 17.8201 11.3144 17.664L11.359 17.6557C11.4647 17.6366 11.5621 17.5857 11.6382 17.5099C11.7144 17.434 11.7656 17.3368 11.7852 17.2312L12.0446 15.8286C12.6426 15.6039 13.1944 15.2851 13.69 14.8787L15.0314 15.3561C15.1325 15.3919 15.2422 15.3961 15.3458 15.368C15.4493 15.34 15.5419 15.2811 15.6112 15.1992L15.641 15.1645C16.2159 14.4855 16.6569 13.7207 16.956 12.8897L16.9708 12.8468C17.0419 12.6419 16.9807 12.4123 16.8139 12.2686ZM10.0027 13.1309C8.39859 13.1309 7.09847 11.8308 7.09847 10.2267C7.09847 8.62259 8.39859 7.32246 10.0027 7.32246C11.6068 7.32246 12.9069 8.62259 12.9069 10.2267C12.9069 11.8308 11.6068 13.1309 10.0027 13.1309Z" fill="white"/>
</svg>
