<svg width="20" height="20" viewBox="0 0 20 20" fill="none" xmlns="http://www.w3.org/2000/svg">
<path d="M5.23995 9.1C5.99008 9.1 6.59995 8.33766 6.59995 7.4C6.59995 6.46234 5.99008 5.7 5.23995 5.7C4.48983 5.7 3.87995 6.46234 3.87995 7.4C3.87995 8.33766 4.48983 9.1 5.23995 9.1ZM14.76 9.1C15.5101 9.1 16.12 8.33766 16.12 7.4C16.12 6.46234 15.5101 5.7 14.76 5.7C14.0098 5.7 13.4 6.46234 13.4 7.4C13.4 8.33766 14.0098 9.1 14.76 9.1ZM15.44 9.95H14.08C13.706 9.95 13.3681 10.1386 13.1216 10.4441C13.978 11.0311 14.5857 12.0909 14.7175 13.35H16.12C16.4961 13.35 16.8 12.9702 16.8 12.5V11.65C16.8 10.7123 16.1901 9.95 15.44 9.95ZM9.99995 9.95C11.3153 9.95 12.38 8.61922 12.38 6.975C12.38 5.33078 11.3153 4 9.99995 4C8.68458 4 7.61995 5.33078 7.61995 6.975C7.61995 8.61922 8.68458 9.95 9.99995 9.95ZM11.632 10.8H11.4556C11.0136 11.0656 10.5227 11.225 9.99995 11.225C9.4772 11.225 8.98845 11.0656 8.54433 10.8H8.36795C7.01645 10.8 5.91995 12.1706 5.91995 13.86V14.625C5.91995 15.3289 6.37683 15.9 6.93995 15.9H13.06C13.6231 15.9 14.08 15.3289 14.08 14.625V13.86C14.08 12.1706 12.9835 10.8 11.632 10.8ZM6.87833 10.4441C6.63183 10.1386 6.29395 9.95 5.91995 9.95H4.55995C3.80983 9.95 3.19995 10.7123 3.19995 11.65V12.5C3.19995 12.9702 3.50383 13.35 3.87995 13.35H5.28033C5.4142 12.0909 6.02195 11.0311 6.87833 10.4441Z" fill="white"/>
</svg>
