<svg width="14" height="14" viewBox="0 0 14 14" fill="none" xmlns="http://www.w3.org/2000/svg">
<path d="M2.682 0C1.97069 0 1.28851 0.282567 0.78554 0.78554C0.282567 1.28851 0 1.97069 0 2.682V11.318C0 12.8 1.2 14 2.682 14H11.318C12.8 14 14 12.8 14 11.318V2.682C14 1.2 12.8 0 11.318 0H2.682ZM1 2.682C1 1.753 1.753 1 2.682 1H11.318C12.247 1 13 1.753 13 2.682V11.318C13 12.247 12.247 13 11.318 13H2.682C2.23591 13 1.80808 12.8228 1.49265 12.5074C1.17721 12.1919 1 11.7641 1 11.318V2.682Z" fill="#A5A5A5"/>
</svg>
