<svg width="20" height="21" viewBox="0 0 20 21" fill="none" xmlns="http://www.w3.org/2000/svg">
<path d="M9.16734 8.83337H10.834V13H9.16734V8.83337ZM9.1665 13.8334H10.8332V15.5H9.1665V13.8334Z" fill="white"/>
<path d="M11.4731 3.99999C11.1831 3.45416 10.6181 3.11499 9.99979 3.11499C9.38146 3.11499 8.81646 3.45416 8.52646 4.00082L2.41146 15.5533C2.27577 15.807 2.20855 16.0917 2.21644 16.3793C2.22433 16.6669 2.30706 16.9475 2.45646 17.1933C2.60371 17.4403 2.81283 17.6446 3.06317 17.7861C3.31351 17.9275 3.59642 18.0013 3.88396 18H16.1156C16.7056 18 17.2398 17.6983 17.544 17.1933C17.6931 16.9474 17.7757 16.6668 17.7836 16.3793C17.7915 16.0917 17.7244 15.8071 17.589 15.5533L11.4731 3.99999ZM3.88396 16.3333L9.99979 4.78082L16.1198 16.3333H3.88396Z" fill="white"/>
</svg>
