<svg width="45" height="42" viewBox="0 0 45 42" fill="none" xmlns="http://www.w3.org/2000/svg">
<rect width="45" height="42" rx="3" fill="#5AC4FF"/>
<path d="M14.6631 14.0781H30.2881C30.4706 14.078 30.6529 14.0896 30.834 14.1128C30.7726 13.682 30.6246 13.2681 30.399 12.8961C30.1734 12.524 29.8747 12.2016 29.521 11.948C29.1674 11.6945 28.7661 11.5153 28.3413 11.4211C27.9165 11.3269 27.477 11.3197 27.0493 11.3999L14.1992 13.5938H14.1846C13.378 13.748 12.6607 14.2044 12.1792 14.8696C12.9046 14.3537 13.7729 14.077 14.6631 14.0781V14.0781Z" fill="white"/>
<path d="M30.2881 15.25H14.6631C13.8346 15.2509 13.0402 15.5804 12.4544 16.1663C11.8685 16.7521 11.539 17.5465 11.5381 18.375V27.75C11.539 28.5785 11.8685 29.3729 12.4544 29.9587C13.0402 30.5446 13.8346 30.8741 14.6631 30.875H30.2881C31.1166 30.8741 31.9109 30.5446 32.4968 29.9587C33.0827 29.3729 33.4122 28.5785 33.4131 27.75V18.375C33.4122 17.5465 33.0827 16.7521 32.4968 16.1663C31.9109 15.5804 31.1166 15.2509 30.2881 15.25V15.25ZM27.9688 24.625C27.6597 24.625 27.3576 24.5334 27.1007 24.3617C26.8437 24.19 26.6435 23.946 26.5252 23.6604C26.4069 23.3749 26.376 23.0608 26.4363 22.7577C26.4966 22.4546 26.6454 22.1762 26.8639 21.9576C27.0824 21.7391 27.3608 21.5903 27.6639 21.53C27.967 21.4697 28.2812 21.5007 28.5667 21.6189C28.8522 21.7372 29.0962 21.9375 29.2679 22.1944C29.4396 22.4514 29.5312 22.7535 29.5312 23.0625C29.5312 23.4769 29.3666 23.8743 29.0736 24.1674C28.7806 24.4604 28.3832 24.625 27.9688 24.625Z" fill="white"/>
<path d="M11.5625 21.6709V16.8125C11.5625 15.7544 12.1484 13.9805 14.1821 13.5962C15.9082 13.2725 17.6172 13.2725 17.6172 13.2725C17.6172 13.2725 18.7402 14.0537 17.8125 14.0537C16.8848 14.0537 16.9092 15.25 17.8125 15.25C18.7158 15.25 17.8125 16.3975 17.8125 16.3975L14.1748 20.5234L11.5625 21.6709Z" fill="white"/>
</svg>
